<svg xmlns="http://www.w3.org/2000/svg" viewBox="2191 6445 49.849 51"><defs><style>.cls-1{fill:#febe12}</style></defs><path id="Path_176" data-name="Path 176" class="cls-1" d="M48.953 36.483C52.869 47.3 43.285 48.85 36.07 46.17c-7.832-2.782-14.84-8.76-19.478-15.77a11.767 11.767 0 0 1-4.019-.618c2.576 7.42 3.71 15.047 2.989 21.23 0-12.47-5.874-24.94-14.325-35.246-2.989-3.607.1-6.287 2.783-2.783a74.216 74.216 0 0 1 4.947 7.936C11.955 10.718 26.28 1.855 36.07.412c22.57-3.4 8.142 15.974 1.134 21.333 4.844 3.71 9.688 8.863 11.749 14.738zM33.185 24.631a25.544 25.544 0 0 1-3.195 1.855 31.426 31.426 0 0 1-9.481 3.5c3.916 4.535 9.481 8.863 15.356 10.512 3.4.928 7.214.515 5.771-4.328-1.34-4.535-4.947-8.554-8.451-11.543zm-14.428-10c5.05-.618 10.1 1.649 14.222 4.122C37.307 16.077 50.7 1.545 38.235 2.885c-7.214.824-15.974 7.523-19.478 11.749zm9.791 6.6c-2.783-1.752-6.493-3.607-9.894-3.3-4.432.412-3.5 5.565 1.134 5.565a23.971 23.971 0 0 0 8.759-2.266z" transform="translate(2190.988 6444.986)"/></svg>