<svg id="Layer_1" xmlns="http://www.w3.org/2000/svg" viewBox="0 0 271.1 51"><style>.st0{fill:#fff}</style><path class="st0" d="M78 13.1H62.9c-.5 0-.9.4-.9.9h-.1v22.1c0 .5.4.9.9.9s.9-.4 1-.9v-10h12.8c.5 0 .8-.4.8-.8 0-.5-.4-.8-.8-.8H63.7v-9.7H78c.5 0 .8-.4.8-.8s-.3-.9-.8-.9zm6.9-1.2h-.1c-.4 0-.7.4-.7.8V36c0 .5.4.8.8.8.5 0 .8-.4.8-.8V12.8c0-.5-.3-.9-.8-.9zm21.8 8.4c0-.5-.4-.8-.8-.8-.5 0-.8.4-.8.8V30c0 3.3-2.7 5.9-6 5.8-3.5 0-5.5-2.3-5.5-5.9v-9.6c0-.5-.4-.8-.8-.8s-.8.4-.8.8v9.9c0 4.1 2.6 7.1 6.9 7.1 2.6.1 5.1-1.3 6.3-3.6v2.5c0 .5.4.8.8.8.5 0 .8-.4.8-.8h-.1V20.3zm14.4.8c.4 0 .8-.3.8-.7 0-.4-.4-.8-.8-.8h-5.5v-4.8c0-.4-.4-.8-.8-.8h-.1c-.4 0-.7.4-.7.8v4.8h-1.9c-.4 0-.8.3-.8.7 0 .4.4.8.8.8h1.9v11.3c0 3.2 2.2 4.7 4.8 4.7.8 0 1.7-.1 2.5-.4.3-.1.5-.4.5-.7 0-.4-.3-.7-.7-.7-.6.2-1.3.3-2 .3-2.1 0-3.5-.9-3.5-3.4V21.1h5.5zm13.6 0c.4 0 .8-.3.8-.7 0-.4-.4-.8-.8-.8h-5.5v-4.8c0-.4-.4-.8-.8-.8h-.1c-.4 0-.7.4-.7.8v4.8h-1.9c-.4 0-.8.3-.8.7 0 .4.4.8.8.8h1.9v11.3c0 3.2 2.2 4.7 4.8 4.7.8 0 1.7-.1 2.5-.4.3-.1.5-.4.5-.7 0-.4-.3-.7-.7-.7-.6.2-1.3.3-2 .3-2.1 0-3.5-.9-3.5-3.4V21.1h5.5zm12-2c-4.7 0-8.2 4-8.2 9.1v.1c0 5.5 3.9 9.1 8.5 9.1 2.5.1 5-.9 6.7-2.8.2-.2.3-.4.3-.6 0-.4-.4-.8-.8-.8-.2 0-.4.1-.5.2-1.4 1.5-3.5 2.4-5.6 2.4-3.4 0-6.5-2.5-6.8-6.8h13.6c.4 0 .8-.4.8-.8 0-5.1-3.1-9.1-8-9.1zm-6.5 8.3c.3-3.8 3-6.7 6.4-6.7 3.9 0 6 3.2 6.2 6.7h-12.6zm27.9-8c-3.1.2-5.8 2.3-6.9 5.2v-4.2c0-.4-.4-.8-.8-.8-.5 0-.8.3-.9.8v16c0 .4.4.8.8.8.5 0 .8-.3.9-.8V30c0-5.6 3.2-8.3 6.9-8.7h.1c.5 0 .8-.5.8-.9 0-.6-.4-1-.9-1zm27.3-.9c-1.2 0-2.2.8-2.5 2l-2.9 9.3-2.9-9.3c-.3-1.2-1.4-2.1-2.7-2.1h-.3c-1.3 0-2.4.8-2.7 2.1l-2.9 9.2-2.8-9.3c-.3-1.1-1.3-2-2.5-2h-.1c-1.3 0-2.3 1.1-2.3 2.4 0 .4.1.8.2 1.2l4.5 12.9c.3 1.3 1.4 2.2 2.8 2.3h.2c1.3 0 2.4-.9 2.8-2.2l2.9-9.2 2.9 9.2c.3 1.3 1.5 2.2 2.8 2.2h.2c1.4 0 2.6-.9 2.9-2.3l4.5-13c.1-.3.2-.7.2-1v-.1c0-1.3-1-2.3-2.3-2.3zm12.8 0c-2-.1-3.9.3-5.8.9-.8.3-1.3 1.1-1.3 2 0 1.2 1 2.1 2.2 2 .2 0 .5 0 .7-.1 1.2-.4 2.4-.5 3.6-.5 2.6 0 3.9 1.1 3.9 3.3v.3c-1.4-.5-2.9-.7-4.4-.7-4.3 0-7.3 1.9-7.3 5.9 0 3.6 2.9 5.6 6.2 5.6 2.1.1 4.1-.8 5.5-2.3.1 1.3 1.2 2.2 2.5 2.2 1.4 0 2.5-1.1 2.5-2.5v-8.2c.1-2.1-.6-4.2-2-5.8-1.5-1.3-3.5-2.1-6.3-2.1zm3.4 11.9c0 2-1.7 3.2-4.1 3.1-1.6 0-2.8-.8-2.8-2.2v-.1c0-1.5 1.4-2.5 3.6-2.5 1.1 0 2.3.3 3.3.7v1zm22.7-12c-1.1 0-2.1.7-2.4 1.8l-4 10.6-3.9-10.5c-.3-1.1-1.3-1.9-2.5-1.9-1.3 0-2.4 1-2.5 2.4 0 .4.1.8.3 1.2l5.6 12.9c.4 1.3 1.5 2.2 2.9 2.3h.3c1.3-.1 2.5-.9 3-2.2l5.4-12.9c.2-.4.3-.8.3-1.2v-.1c0-1.3-1.1-2.4-2.5-2.4zm13.5-.1c-5.3 0-9 4.3-9 9.5v.8c.2 5 4.5 8.9 9.5 8.6 2.3 0 4.5-.7 6.3-2.2.5-.4.7-.9.7-1.5v-.1c0-1.1-.9-2-2-2-.4 0-.9.1-1.2.4-1.1.8-2.4 1.3-3.7 1.2-2.2.1-4.1-1.4-4.4-3.6h10.3c1.3-.1 2.3-1.2 2.2-2.5v-.4c0-4.5-3.9-8.3-8.7-8.2zm-3.9 8.1c.4-2.4 1.8-3.9 3.9-3.9s3.5 1.6 3.8 3.9h-7.7zm27.2-7.9c-.1-3.2-2.7-5.8-6-5.8-3.2.1-5.8 2.7-5.8 6 0 3.2 2.6 5.9 5.9 5.9 3.3 0 5.9-2.7 5.9-6v-.1zm-5.8 5.5c-2.9 0-5.3-2.3-5.3-5.3 0-2.9 2.4-5.2 5.3-5.3 2.9 0 5.3 2.3 5.3 5.3-.1 2.9-2.4 5.3-5.3 5.3z"/><path class="st0" d="M266.5 19.3c.8-.2 1.4-1 1.4-1.9 0-1.2-.9-1.9-2.2-1.9h-2.3c-.3 0-.5.2-.5.5v5.1c0 .3.2.5.5.5s.5-.2.5-.5v-1.8h1.3l1.6 2c.2.2.3.3.5.3s.4-.2.4-.4c0-.1-.1-.2-.2-.4l-1-1.5zm-2.5-.7v-2.2h1.5c.8 0 1.3.3 1.3 1s-.5 1.1-1.3 1.1l-1.5.1zM37.2 21.7C44.2 16.3 58.6-3 36.1.4 26.3 1.8 11.9 10.7 9 20.9A80.9 80.9 0 0 0 4 13c-2.7-3.5-5.8-.8-2.8 2.8C9.7 26.1 15.6 38.5 15.6 51c.7-6.2-.4-13.8-3-21.2 1.3.4 2.7.6 4 .6 4.6 7 11.6 13 19.5 15.8 7.2 2.7 16.8 1.1 12.9-9.7-2.1-5.9-7-11.1-11.8-14.8zm1-18.8c12.5-1.3-.9 13.2-5.3 15.9-4.1-2.5-9.2-4.7-14.2-4.1 3.6-4.3 12.3-11 19.5-11.8zm-19.6 15c3.4-.3 7.1 1.5 9.9 3.3-2.7 1.3-5.7 2.1-8.8 2.3-4.6 0-5.5-5.2-1.1-5.6zm17.3 22.6c-5.9-1.6-11.4-6-15.4-10.5 3.3-.6 6.5-1.8 9.5-3.5 1.1-.5 2.2-1.2 3.2-1.9 3.5 3 7.1 7 8.5 11.5 1.4 4.9-2.4 5.3-5.8 4.4z"/></svg>